<svg width="109" height="116" viewBox="0 0 109 116" fill="none" xmlns="http://www.w3.org/2000/svg">
<path d="M72.6811 24.9331L15.0243 72.8588C14.4301 72.9297 13.5472 72.7702 12.3754 72.3804C10.9065 71.8842 9.51192 71.1488 8.1916 70.1741C4.42868 67.4097 2.15112 63.4403 1.35893 58.2658C0.583237 53.304 1.29291 47.9789 3.48795 42.2905C4.21412 40.4121 5.10534 38.4717 6.1616 36.4693L8.09257 32.9872C9.66045 29.9924 10.956 27.033 11.9793 24.1091C13.6792 19.2181 14.1413 15.6031 13.3656 13.264L14.1578 13.3703C14.7519 13.4943 15.2306 13.7247 15.5937 14.0614C15.5441 13.4943 15.4039 12.8298 15.1728 12.0678C14.6942 10.5084 14.0093 9.19706 13.118 8.13381L15.7917 7.7351C18.0528 7.75282 20.3468 8.44393 22.6739 9.80842L22.5006 8.34646C22.4346 7.3541 22.5253 6.80476 22.7729 6.69843C23.1525 6.53895 23.6971 6.9288 24.4068 7.868C24.4233 7.08829 24.5801 6.20225 24.8772 5.20989C25.4548 3.26061 26.4286 1.78979 27.7984 0.797424L29.16 3.48212C30.4308 5.41368 31.9822 6.7516 33.8141 7.49587C35.415 8.16925 39.0459 8.68316 44.7068 9.03757C50.1861 9.39199 54.048 10.1185 56.2926 11.2172L58.6692 11.4299C60.6002 11.6957 62.3826 12.183 64.0165 12.8918C69.2813 15.1778 72.1695 19.1916 72.6811 24.9331Z" fill="#68AE28"/>
<path d="M3.06707 63.4757C-0.66284 55.9267 0.228378 47.2524 5.74072 37.4528C2.95154 45.374 3.89227 51.7091 8.56291 56.4583C10.5929 58.5139 13.151 60.0202 16.2373 60.9771C19.2575 61.8986 22.4593 62.1998 25.8426 61.8808L14.3063 73.0715C12.6229 72.912 10.7497 72.0348 8.68669 70.44C6.32662 68.5793 4.45341 66.2579 3.06707 63.4757Z" fill="#56931F"/>
<path d="M95.3081 21.4244C96.777 22.1155 98.056 24.4635 99.1453 28.4684C100.119 32.1011 100.449 34.6706 100.136 36.1769C102.083 38.6047 103.981 43.345 105.829 50.3978C107.925 58.3013 108.28 64.0516 106.894 67.649C106.448 68.8008 105.145 70.3691 102.982 72.3538C100.738 74.4449 98.5182 76.0575 96.3231 77.1916L97.4371 79.132C98.3284 80.8332 99.1288 82.6673 99.8385 84.6343C102.1 90.9783 103.04 97.5527 102.661 104.357C102.545 106.519 100.878 108.291 97.66 109.674C94.5077 111.003 91.1491 111.446 87.5842 111.003C86.3794 110.826 84.7868 109.31 82.8063 106.457C80.5453 103.144 79.2002 99.7058 78.7711 96.1439C75.7508 98.0223 73.201 99.2893 71.1215 99.945L70.4778 101.115C69.9167 102.072 69.2565 102.958 68.4973 103.773C66.1042 106.395 63.2738 107.857 60.006 108.159C56.7547 108.46 54.2296 108.185 52.4306 107.335C51.8695 107.069 51.4074 106.759 51.0443 106.404L50.6977 105.952L30.9176 106.67L28.8876 108.584C27.0722 109.877 24.9762 110.56 22.5996 110.631C19.3483 110.737 16.7902 110.418 14.9252 109.674C12.5817 108.717 10.9147 106.971 9.9245 104.437C8.48865 100.787 7.72947 96.6047 7.64695 91.8909C7.53142 85.7596 8.81048 80.7446 11.4841 76.846C14.0588 73.0892 17.4173 69.2615 21.5598 65.363C22.7151 64.282 25.8591 61.5353 30.9919 57.1228C33.616 54.89 35.9514 52.7281 37.9979 50.637C40.0774 48.5106 41.3399 46.9866 41.7855 46.0651C42.2642 42.5387 42.8913 38.9591 43.667 35.3263C45.2349 28.0608 46.7533 24.18 48.2221 23.6838C49.691 23.2053 51.853 23.7104 54.7082 25.1989C56.1275 25.9609 57.3984 26.7583 58.5206 27.5912L60.204 26.9533C61.6894 26.4748 63.3151 26.0672 65.081 25.7305C70.7254 24.685 76.7163 24.623 83.0539 25.5445C84.0111 24.4458 86.1236 23.3825 89.3914 22.3547C92.5437 21.3624 94.5159 21.0523 95.3081 21.4244Z" fill="#7CBEB3"/>
<path d="M99.7889 32.0037L100.284 36.1769L97.7342 32.11C97.9983 30.9227 98.1138 29.319 98.0808 27.2988L97.9322 24.6407C98.6914 26.395 99.3103 28.8494 99.7889 32.0037Z" fill="#68A198"/>
<path d="M43.0976 36.7085C44.4344 30.1164 45.7465 26.3065 47.0338 25.2787C46.7202 29.1063 46.613 32.8897 46.712 36.6288C46.778 38.8262 46.9926 42.1754 47.3556 46.6765C47.5702 49.3523 47.3144 51.7269 46.5882 53.8002C45.9445 55.6077 45.1028 56.8393 44.0631 57.495C43.0398 58.1329 42.1981 57.9912 41.538 57.0697C40.8283 56.0596 40.589 54.323 40.8201 51.8598C41.2822 46.9511 42.0413 41.9007 43.0976 36.7085Z" fill="#68A198"/>
<path d="M87.7822 104.278C89.0531 106.83 90.5714 108.424 92.3374 109.062L91.3966 111.083C88.9045 111.614 86.7012 110.914 84.7868 108.983C82.4927 106.626 80.4627 102.346 78.6968 96.1439C75.8416 98.0046 72.6728 99.3957 69.1905 100.317C65.7576 101.239 61.6316 101.797 56.8124 101.992C56.0532 102.258 55.5004 102.825 55.1538 103.693C54.8072 104.526 54.7989 105.279 55.129 105.952L53.7427 107.707L50.772 105.766C50.8545 105.164 51.3166 103.365 52.1583 100.37C52.9835 97.4995 53.5034 95.0098 53.7179 92.901C54.3451 86.5924 52.7112 80.8864 48.8162 75.7828C52.2821 79.5219 58.3556 81.8699 67.0367 82.8268C76.3119 83.8369 84.1926 82.9331 90.6787 80.1155C88.5992 81.5509 87.1138 83.7837 86.2226 86.8139C85.4304 89.5429 85.1911 92.5643 85.5047 95.8781C85.8183 99.0678 86.5774 101.868 87.7822 104.278Z" fill="#68A198"/>
<path d="M7.39935 89.0202C8.10903 95.2402 11.2778 99.2362 16.9057 101.008C19.0677 101.682 21.3453 101.93 23.7383 101.753C25.9169 101.593 27.7076 101.132 29.1104 100.37L30.9176 106.909C29.6303 108.256 27.8974 109.31 25.7188 110.072C21.3618 111.596 16.9799 110.932 12.5734 108.079C10.4443 106.697 8.91772 103.188 7.9935 97.5527C7.69643 95.6566 7.49838 93.7339 7.39935 91.7846C7.31683 90.1543 7.31683 89.2328 7.39935 89.0202Z" fill="#68A198"/>
<path d="M60.4021 45.693C61.0457 45.5689 61.7307 45.6841 62.4568 46.0385C59.9647 48.0941 58.6609 51.2484 58.5454 55.5014C58.4299 59.3822 59.2551 63.0238 61.021 66.4262C57.5551 66.0186 55.1126 65.1681 53.6932 63.8744C53.2806 63.4846 53.1073 62.3948 53.1733 60.605C53.2393 58.7443 53.5447 56.795 54.0893 54.7571C55.5086 49.3346 57.6129 46.3132 60.4021 45.693Z" fill="white"/>
<path d="M68.9677 55.8203C69.7434 58.0532 70.222 60.0645 70.4035 61.8542C70.6016 63.7681 70.4035 65.044 69.8094 65.6819C69.4133 66.1072 68.3488 66.3996 66.6158 66.5591C64.8499 66.7009 62.985 66.6566 61.021 66.4262C59.255 63.0238 58.4298 59.3822 58.5454 55.5014C58.6609 51.2484 59.9647 48.0941 62.4568 46.0385C64.9159 47.2612 67.0862 50.5218 68.9677 55.8203Z" fill="#D60040"/>
<path d="M97.957 44.3639C100.02 46.1714 101.25 48.8738 101.646 52.4711C101.893 54.7217 101.794 57.8848 101.349 61.9606C100.622 62.2618 99.921 62.4656 99.2443 62.572C98.5512 62.696 98.0313 62.696 97.6847 62.572C96.711 62.2353 96.2241 59.5594 96.2241 54.5445C96.2076 49.4232 96.7852 46.0296 97.957 44.3639Z" fill="#D60040"/>
<path d="M97.957 44.3639C98.2541 43.9209 98.5677 43.6639 98.8978 43.593C100.499 43.2209 102.05 45.3208 103.552 49.8928C105.021 54.4293 105.31 57.6722 104.418 59.6215C104.006 60.5429 102.983 61.3226 101.349 61.9606C101.794 57.8848 101.893 54.7217 101.646 52.4711C101.25 48.8738 100.02 46.1714 97.957 44.3639Z" fill="white"/>
<path d="M83.4252 41.6526C82.9466 41.8475 81.7005 41.307 79.687 40.0311C77.5745 38.7198 76.5595 37.6477 76.642 36.8148C76.7576 35.7161 78.4657 34.201 81.7665 32.2695C85.1169 30.3202 87.3449 29.6025 88.4507 30.1164C89.1604 30.4354 88.789 32.3138 87.3367 35.7516C85.8678 39.2071 84.564 41.1741 83.4252 41.6526Z" fill="#006359"/>
<path d="M72.4088 43.9386C72.3593 43.7082 72.6068 43.2741 73.1515 42.6361C73.7126 41.9805 74.216 41.5906 74.6616 41.4666L75.2062 42.2906C75.6683 43.1234 76.1304 44.293 76.5925 45.7993L76.2707 46.6233C75.9571 47.2258 75.5693 47.6422 75.1072 47.8726L73.9189 46.6499C73.0937 45.6752 72.5903 44.7715 72.4088 43.9386Z" fill="#006359"/>
<path d="M91.5452 49.7333C92.0568 52.8698 92.0981 54.6242 91.669 54.9963C91.2894 55.333 90.1341 55.2001 88.2031 54.5976C86.2556 53.9951 85.1499 53.4103 84.8858 52.8433C84.9683 51.5319 85.5955 49.8928 86.7673 47.9258C87.9721 45.9588 88.9458 44.9753 89.6885 44.9753C90.4147 44.9753 91.0336 46.5613 91.5452 49.7333Z" fill="#006359"/>
<path d="M93.0305 95.9578C92.9645 94.9478 93.5422 93.5035 94.7635 91.6251C95.9517 89.7822 96.81 88.8961 97.3381 88.967C98.1303 89.0556 98.6749 90.8366 98.972 94.3098C99.2526 97.8008 98.9967 99.6881 98.2045 99.9716C97.3298 100.291 96.2818 100.113 95.0605 99.44C93.6577 98.6425 92.981 97.4818 93.0305 95.9578Z" fill="#006359"/>
<path d="M14.5539 81.0193L18.6386 81.2053C20.4706 81.5952 21.5268 82.0293 21.8074 82.5078C22.2695 83.3052 21.9642 84.9887 20.8914 87.5582C19.8352 90.11 18.944 91.4213 18.2178 91.4922C17.5906 91.5454 16.3198 90.872 14.4054 89.472C12.4744 88.0721 11.5172 87.0975 11.5337 86.5481C11.5502 85.8393 11.872 84.8292 12.4991 83.5179C13.1923 82.0471 13.8772 81.2142 14.5539 81.0193Z" fill="#006359"/>
<path d="M38.0969 58.2392C38.526 59.0366 37.8328 61.2517 36.0174 64.8845C34.2019 68.5172 32.8073 70.4488 31.8336 70.6792C30.9424 70.9095 29.49 70.4931 27.4765 69.4299C25.5786 68.4552 24.316 67.5603 23.6889 66.7452C23.4908 66.4794 23.6228 65.6996 24.0849 64.406L24.8276 62.5188L28.1449 59.7012C30.3895 57.8051 31.6438 56.8216 31.9079 56.7507L35.0024 57.0431C36.8178 57.3798 37.8493 57.7785 38.0969 58.2392Z" fill="#006359"/>
<path d="M63.2243 48.7232C63.7524 48.7232 64.2145 49.2814 64.6106 50.3978C65.0067 51.5851 65.1965 53.0648 65.18 54.8369C65.147 56.5203 64.9325 57.8494 64.5364 58.824C64.1733 59.7101 63.7277 60.1531 63.1995 60.1531C62.7044 60.1531 62.2753 59.6746 61.9122 58.7177C61.5161 57.7076 61.3016 56.4317 61.2686 54.89C61.2026 53.0293 61.3841 51.5142 61.8132 50.3447C62.1928 49.2637 62.6632 48.7232 63.2243 48.7232Z" fill="white"/>
<path d="M96.7935 49.308L97.2886 46.9157C97.4867 46.6321 97.6765 46.4992 97.858 46.5169C98.1551 46.5347 98.4356 46.8802 98.6997 47.5536C99.0793 48.4574 99.2856 49.7333 99.3186 51.3813C99.3351 52.9407 99.2031 54.1546 98.9225 55.0229C98.6584 55.8026 98.3284 56.1925 97.9323 56.1925C97.6847 56.1925 97.4371 55.9975 97.1896 55.6077C96.9255 55.1824 96.744 54.6242 96.645 53.9331C96.4469 52.7103 96.4964 51.1686 96.7935 49.308Z" fill="white"/>
<path d="M86.2474 26.7672C81.7253 25.828 77.1454 25.4647 72.5078 25.6774C67.5235 25.89 62.9437 26.7583 58.7682 28.2823C58.6196 28.3355 58.4133 28.1583 58.1493 27.7507C57.8687 27.3431 57.8027 27.1039 57.9512 27.033C62.6879 25.3141 67.8206 24.3926 73.3495 24.2686C78.2017 24.1445 82.633 24.6318 86.6435 25.7305C88.69 26.2976 89.6637 26.714 89.5647 26.9798L86.2474 26.7672Z" fill="#0D131A"/>
<path d="M99.6157 34.1833C102.966 39.3932 105.409 45.436 106.943 52.3116C108.28 58.3013 108.61 62.9352 107.934 66.2136C107.191 69.8463 103.494 73.5677 96.843 77.3776C90.2414 81.1699 83.8626 83.2698 77.7066 83.6774C71.1215 84.1027 64.9242 83.5179 59.1148 81.923C53.3054 80.3281 49.5589 78.1751 47.8755 75.4638C47.3309 74.5778 47.1576 74.0373 47.3556 73.8424C47.5702 73.6474 48.0571 73.993 48.8163 74.879C51.0443 77.5017 55.0135 79.5041 60.7239 80.8864C66.1537 82.1977 71.8229 82.6584 77.7313 82.2686C83.9038 81.861 90.1341 79.7788 96.4221 76.022C102.463 72.407 105.813 68.9869 106.473 65.7617C107.166 62.4125 106.877 57.8937 105.607 52.2053C104.187 45.8436 101.918 40.1198 98.7987 35.0339C97.5114 32.9252 97.008 31.7556 97.2886 31.5252C97.5527 31.2948 98.3284 32.1809 99.6157 34.1833Z" fill="#0D131A"/>
<path d="M42.2559 46.3575C41.1667 48.5548 38.9634 51.1686 35.6461 54.1989C33.6656 55.9887 30.3318 58.824 25.6446 62.7048C21.3701 66.3553 18.0693 69.5716 15.7422 72.3538C12.5404 76.1815 10.4114 79.9471 9.35513 83.6508C8.08432 88.0987 8.01831 93.0959 9.15708 98.6425C10.2133 103.87 11.7152 107.095 13.6627 108.318C15.7587 109.629 18.5809 110.205 22.1293 110.046C25.7931 109.886 28.3265 108.965 29.7294 107.281C31.8914 104.676 32.7331 100.459 32.2545 94.6288C31.7594 88.6746 30.0759 83.9254 27.2042 80.3813C26.082 78.9814 25.6034 78.1308 25.7684 77.8295C25.9334 77.5283 26.6349 78.0865 27.8727 79.5041C31.487 83.6685 33.5005 88.7632 33.9131 94.7883C34.2927 100.512 33.1787 104.942 30.5711 108.079C29.0032 109.975 26.181 111.038 22.1045 111.269C18.16 111.499 15.0325 110.888 12.722 109.434C10.3784 107.964 8.66196 104.49 7.5727 99.0147C6.46693 93.3795 6.5742 88.1696 7.89453 83.385C8.90127 79.7699 10.89 76.146 13.8607 72.5133C16.0228 69.8552 19.1503 66.7452 23.2433 63.1833L33.3933 54.3584C37.0572 50.9737 39.7886 47.8637 41.5875 45.0284C41.67 44.9044 41.8186 45.055 42.0331 45.4803C42.2642 45.9233 42.3384 46.2157 42.2559 46.3575Z" fill="#0D131A"/>
<path d="M48.3211 22.8864C49.3444 22.5319 51.069 22.8864 53.4951 23.9496C55.9377 25.0306 57.943 26.3508 59.5109 27.9102C60.7487 29.1506 61.2273 29.8506 60.9467 30.0101C60.6826 30.1873 59.9234 29.7531 58.6691 28.7076C57.0517 27.3963 55.1785 26.2887 53.0495 25.385C50.97 24.4812 49.5754 24.1622 48.8657 24.4281C47.7105 24.8356 46.3736 27.9811 44.8553 33.8644C43.2544 40.0843 42.2146 46.6056 41.736 53.4281C41.604 55.3951 41.3729 56.2988 41.0428 56.1393C40.6963 55.9798 40.556 55.0495 40.622 53.3483C40.8365 47.4473 41.6617 41.2716 43.0976 34.8213C44.7315 27.5203 46.4727 23.542 48.3211 22.8864Z" fill="#0D131A"/>
<path d="M82.2617 25.1723C83.6975 24.0028 85.9008 22.8863 88.8716 21.8231C92.2219 20.6181 94.5489 20.3346 95.8528 20.9725C97.1401 21.5927 98.3119 23.6749 99.3681 27.2191C100.342 30.5151 100.886 33.8289 101.002 37.1604C101.002 37.3199 100.796 37.1515 100.383 36.6554C99.954 36.1592 99.7395 35.8225 99.7395 35.6453C99.6404 32.9517 99.0628 30.1164 98.0065 27.1393C96.9998 24.304 96.0673 22.6737 95.2091 22.2484C94.4004 21.8585 92.5519 22.1066 89.6637 22.9927C86.7425 23.8787 84.663 24.8268 83.4252 25.8369C83.3097 25.9432 83.0539 25.89 82.6578 25.6774C82.2782 25.447 82.1462 25.2786 82.2617 25.1723Z" fill="#0D131A"/>
<path d="M83.1776 40.9083C83.9863 40.8906 85.1169 39.2337 86.5692 35.9377C88.0051 32.6948 88.5415 30.9759 88.1784 30.7809C87.3697 30.3379 85.3644 30.9847 82.1626 32.7214C78.9444 34.458 77.327 35.7959 77.3105 36.7351C77.294 37.3199 78.0036 38.1439 79.4395 39.2071C80.9083 40.2704 82.1544 40.8375 83.1776 40.9083ZM81.1972 32.0037C84.7125 29.9658 87.2211 29.0975 88.723 29.3987C89.2346 29.505 89.3832 30.2316 89.1686 31.5784C88.9706 32.8188 88.5249 34.2719 87.8318 35.9377C86.0989 40.0843 84.5475 42.1222 83.1776 42.0513C82.0884 41.9804 80.636 41.3071 78.8206 40.0312C76.9226 38.7021 75.9736 37.5768 75.9736 36.6554C75.9736 35.5744 77.7148 34.0238 81.1972 32.0037Z" fill="#0D131A"/>
<path d="M76.0974 45.9588C76.1469 45.817 75.9654 45.1613 75.5528 43.9918C75.1402 42.8045 74.8431 42.202 74.6615 42.1842C74.513 42.1665 74.1829 42.4058 73.6713 42.9019C73.1597 43.3981 72.9039 43.7702 72.9039 44.0183C72.9204 44.2487 73.2669 44.8512 73.9436 45.8259C74.6203 46.7651 75.0164 47.2347 75.1319 47.2347C75.2309 47.2347 75.4042 47.0574 75.6518 46.703L76.0974 45.9588ZM76.1469 43.1677C76.6585 44.4791 76.9226 45.374 76.9391 45.8524C76.9556 46.2423 76.6915 46.7739 76.1469 47.4473C75.5858 48.1384 75.1649 48.4131 74.8843 48.2713C74.5543 48.1118 73.9849 47.4562 73.1762 46.3043C72.3015 45.0816 71.8971 44.2398 71.9631 43.7791C72.0291 43.3007 72.417 42.6981 73.1267 41.9716C73.8363 41.2805 74.3727 40.9438 74.7358 40.9615C75.1154 40.997 75.5858 41.7324 76.1469 43.1677Z" fill="#0D131A"/>
<path d="M89.5152 45.7461C89.0036 45.7107 88.1619 46.7473 86.9901 48.8561C85.8513 50.9471 85.3479 52.1964 85.48 52.604C85.612 52.9762 86.5445 53.428 88.2774 53.9597C90.0268 54.4913 91.0253 54.633 91.2729 54.385C91.6525 53.9951 91.5782 52.4623 91.0501 49.7864C90.5219 47.1283 90.0103 45.7815 89.5152 45.7461ZM86.1484 47.9789C87.5842 45.3208 88.7147 44.036 89.5399 44.1246C90.5797 44.231 91.4132 46.0739 92.0403 49.6535C92.651 53.2154 92.6014 55.1824 91.8918 55.5545C91.2811 55.8912 89.936 55.6874 87.8565 54.9432C85.81 54.2166 84.6878 53.5964 84.4897 53.0825C84.1761 52.3205 84.729 50.6193 86.1484 47.9789Z" fill="#0D131A"/>
<path d="M54.6835 51.0357C56.6144 46.8359 58.6857 44.8689 60.8972 45.1347C64.0165 45.5246 66.6984 48.351 68.9429 53.6141C69.8837 55.8469 70.5026 58.0531 70.7997 60.2328C71.1132 62.5011 71.0059 64.3086 70.4778 65.6553C70.1973 66.3996 69.141 66.8958 67.309 67.1439C65.6256 67.3565 63.6699 67.3388 61.4419 67.0907C59.1973 66.8426 57.2828 66.4085 55.6985 65.7883C53.949 65.1326 53.0001 64.3795 52.8515 63.5289C52.1088 59.4885 52.7195 55.3242 54.6835 51.0357ZM66.3188 51.4079C64.5859 48.2536 62.7374 46.5612 60.7734 46.3309C59.9978 46.2423 59.1561 46.703 58.2483 47.7131C56.8785 49.2371 55.7727 51.4345 54.931 54.3052C54.0398 57.4241 53.7757 60.41 54.1388 63.263C54.2709 64.3617 56.7382 65.1946 61.5409 65.7617C66.3436 66.3465 68.9512 66.1249 69.3638 65.0971C69.7929 63.9807 69.7186 62.0315 69.141 59.2493C68.5303 56.3431 67.5896 53.7293 66.3188 51.4079Z" fill="#0D131A"/>
<path d="M102.784 49.2814C101.547 45.9853 100.301 44.3373 99.0463 44.3373C97.9405 44.3373 97.2638 47.146 97.0163 52.7635C96.7687 58.3455 97.0823 61.4112 97.957 61.9606C98.5346 62.315 99.6239 62.1201 101.225 61.3758C102.826 60.6315 103.692 59.9316 103.824 59.2759C104.468 56.1393 104.121 52.8078 102.784 49.2814ZM95.8527 52.3116C96.1333 46.1803 97.1978 43.1146 99.0463 43.1146C100.647 43.1146 102.199 44.9487 103.7 48.6169C105.268 52.48 105.706 56.0861 105.012 59.4354C104.765 60.5695 103.544 61.5796 101.349 62.4656C99.2196 63.3339 97.8662 63.5023 97.2886 62.9707C96.744 62.4922 96.3396 61.1809 96.0755 59.0367C95.8115 56.981 95.7372 54.7394 95.8527 52.3116Z" fill="#0D131A"/>
<path d="M31.6355 56.2456L35.9678 56.538C37.6512 56.857 38.6167 57.2734 38.8643 57.7873C39.3099 58.762 38.5012 61.2606 36.4382 65.2832C34.3752 69.3413 32.7991 71.3703 31.7098 71.3703C30.67 71.3703 28.9701 70.8121 26.6101 69.6957C24.1179 68.5261 22.8719 67.5692 22.8719 66.8249C22.8719 66.3996 23.0534 65.7617 23.4165 64.9111L24.6048 62.4125C24.6873 62.2707 24.9101 62.1821 25.2732 62.1466C25.6528 62.1289 25.8014 62.1909 25.7188 62.3327C25.2732 63.2188 24.9184 64.0782 24.6543 64.9111C24.4233 65.6376 24.3077 66.1604 24.3077 66.4794C24.3738 66.9578 25.4383 67.6932 27.5013 68.6856C29.5148 69.6602 30.9094 70.1564 31.685 70.1741C32.4112 69.926 33.5995 68.1185 35.2499 64.7516C36.9003 61.3847 37.61 59.329 37.3789 58.5848C37.2469 58.2835 36.5372 58 35.2499 57.7342L31.4127 57.4418C31.2477 57.4595 31.2064 57.2646 31.2889 56.857C31.3715 56.4671 31.487 56.2634 31.6355 56.2456Z" fill="#0D131A"/>
<path d="M14.7767 81.4977C14.2651 81.7635 13.6792 82.4989 13.019 83.7039C12.3588 84.8912 12.0535 85.7152 12.103 86.176C12.1691 86.6544 13.0438 87.5316 14.7272 88.8075C16.4106 90.0834 17.4999 90.6859 17.995 90.615C18.4901 90.5441 19.2575 89.3214 20.2973 86.9468C21.337 84.5722 21.7249 83.2343 21.4608 82.9331C21.1637 82.6141 20.0827 82.242 18.2178 81.8167C16.3198 81.3914 15.1728 81.285 14.7767 81.4977ZM12.0288 83.0128C12.8045 81.6306 13.5389 80.7446 14.2321 80.3547L18.5149 80.5674C20.8914 81.0458 22.2778 81.6217 22.6739 82.2951C23.037 82.9154 22.6244 84.652 21.4361 87.505C20.2478 90.3403 19.274 91.9086 18.5149 92.2099C17.9372 92.458 16.5756 91.7757 14.4301 90.1631C12.2516 88.5328 11.1045 87.2569 10.989 86.3355C10.9065 85.538 11.2531 84.4305 12.0288 83.0128Z" fill="#0D131A"/>
<path d="M93.5752 95.9047V95.9312C93.6082 97.4021 94.2766 98.4742 95.5804 99.1476C96.7522 99.7501 97.5444 99.8475 97.957 99.4399C98.3861 99.0146 98.5346 97.4021 98.4026 94.6022C98.2706 91.7491 97.8827 90.1631 97.2391 89.8442C96.8925 89.6847 96.191 90.4821 95.1348 92.2365C94.095 93.9908 93.5752 95.2136 93.5752 95.9047ZM94.2931 91.3327C95.5639 89.1531 96.5459 88.0721 97.2391 88.0898C98.3613 88.1075 99.0628 90.0302 99.3433 93.8579C99.6239 97.6147 99.3928 99.7855 98.6502 100.37C98.0395 100.866 96.9255 100.778 95.3081 100.104C93.4596 99.3248 92.5107 98.0223 92.4611 96.1971C92.4446 95.0984 93.0553 93.4769 94.2931 91.3327Z" fill="#0D131A"/>
<path d="M105.161 64.9642C105.144 65.6554 105.054 66.2224 104.889 66.6654L104.394 67.5426C103.585 68.5704 101.654 69.864 98.6006 71.4235C95.4484 73.036 92.7169 74.0904 90.4064 74.5866C86.1979 75.5081 79.7365 75.5878 71.0224 74.8258C62.3083 74.0816 56.8042 72.9652 54.5101 71.4766C54.1305 71.2108 53.7839 70.7766 53.4704 70.1741C53.1898 69.6602 52.9835 69.0932 52.8515 68.473C52.6039 67.3565 52.5874 66.7275 52.8019 66.5857C53.0165 66.4439 53.3548 66.9578 53.8169 68.1274C54.0975 68.8185 54.3946 69.3501 54.7082 69.7223L55.6984 70.5197C57.5469 71.6007 62.4898 72.5576 70.5273 73.3905C79.2249 74.2942 85.777 74.2676 90.1836 73.3107C92.1641 72.8677 94.5159 72.0082 97.2391 70.7323C99.7642 69.5451 101.654 68.4641 102.908 67.4895C103.37 67.1173 103.709 66.7363 103.923 66.3465C104.154 65.9389 104.303 65.4427 104.369 64.8579C104.484 63.7947 104.649 63.2985 104.864 63.3694C105.078 63.458 105.177 63.9896 105.161 64.9642Z" fill="#0D131A"/>
<path d="M67.6308 43.1411C68.2085 43.7082 68.7696 44.3993 69.3142 45.2145C69.8919 46.0651 70.3045 46.8359 70.552 47.527C70.9151 48.5194 70.9316 49.0776 70.6015 49.2016C70.255 49.308 69.8671 48.9181 69.438 48.0321C68.7283 46.5258 67.8619 45.1613 66.8386 43.9386C65.8814 42.7513 65.5018 42.0602 65.6999 41.8653C65.9144 41.6703 66.5581 42.0956 67.6308 43.1411Z" fill="#0D131A"/>
<path d="M95.5309 43.3272C95.2173 44.3019 95.0193 45.3474 94.9368 46.4638C94.8708 47.4384 94.6645 47.9169 94.3179 47.8992C93.9713 47.8992 93.8227 47.4207 93.8723 46.4638C93.9218 45.2942 94.2023 44.1424 94.714 43.0082C95.1761 41.9982 95.5144 41.5197 95.729 41.5729C95.927 41.6437 95.861 42.2285 95.5309 43.3272Z" fill="#0D131A"/>
<path d="M84.663 71.1843C84.2999 70.9893 84.0111 70.7412 83.7965 70.44C83.582 70.1564 83.5077 69.9527 83.5737 69.8286L84.3412 69.8552C84.8198 69.9615 85.1746 70.1299 85.4057 70.3602C85.7027 70.6792 85.7605 70.9539 85.579 71.1843C85.3974 71.4146 85.0921 71.4146 84.663 71.1843Z" fill="#0D131A"/>
<path d="M93.1048 69.8552C92.7582 70.3159 92.4446 70.4754 92.1641 70.3336C91.8835 70.1919 91.867 69.8995 92.1146 69.4565C92.2961 69.1375 92.5849 68.854 92.981 68.6059C93.3441 68.3578 93.5752 68.278 93.6742 68.3666C93.7402 68.4375 93.7237 68.6236 93.6247 68.9248L93.1048 69.8552Z" fill="#0D131A"/>
<path d="M63.3481 46.1714C63.4966 46.2246 63.5626 46.4815 63.5461 46.9423C63.5296 47.403 63.4554 47.5891 63.3233 47.5005C62.4816 46.9334 61.6894 47.3676 60.9467 48.8029C60.2536 50.1143 59.775 51.9306 59.5109 54.2521C59.2303 56.6444 59.2633 58.8772 59.6099 60.9505C60.0225 63.3074 60.79 64.9908 61.9122 66.0009C62.0443 66.1072 61.9617 66.2667 61.6647 66.4794C61.3676 66.6743 61.153 66.7186 61.021 66.6123C59.6677 65.5313 58.7352 63.7415 58.2236 61.2429C57.778 58.9924 57.7285 56.5823 58.075 54.0128C58.4216 51.4788 59.057 49.4586 59.9813 47.9523C60.988 46.3398 62.1103 45.7461 63.3481 46.1714Z" fill="#0D131A"/>
<path d="M97.5361 44.5765C98.1138 44.0981 98.7822 44.3019 99.5414 45.1879C100.301 46.0562 100.952 47.3498 101.497 49.0688C102.85 53.3749 102.908 57.6102 101.67 61.7745C101.621 61.934 101.431 62.0492 101.101 62.1201C100.771 62.1732 100.622 62.1201 100.655 61.9606C101.662 58.5937 101.695 54.7748 100.754 50.5041C100.375 48.7852 99.9045 47.4296 99.3433 46.4372C98.7822 45.4271 98.2706 45.055 97.8085 45.3208C97.6764 45.4094 97.5692 45.3297 97.4866 45.0816C97.4041 44.8512 97.4206 44.6829 97.5361 44.5765Z" fill="#0D131A"/>
<path d="M95.7042 77.5903C95.6217 77.4485 95.795 77.2359 96.2241 76.9523C96.6367 76.6511 96.876 76.5713 96.942 76.7131C101.629 84.8469 103.717 94.3364 103.205 105.181C103.156 106.192 102.438 107.237 101.052 108.318C99.7312 109.346 98.0973 110.205 96.1498 110.896C91.4297 112.562 87.8813 112.5 85.5047 110.71C83.9368 109.523 82.3112 107.255 80.6278 103.906C79.0104 100.698 78.1852 98.2615 78.1522 96.5958C78.1522 96.4363 78.3832 96.2591 78.8453 96.0642L79.5137 95.9844C79.5468 97.6324 80.3142 99.9627 81.8161 102.975C83.417 106.183 85.0261 108.398 86.6435 109.621C88.7065 111.162 91.8175 111.207 95.9765 109.753C97.6599 109.169 99.0793 108.442 100.235 107.574C101.439 106.688 102.058 105.873 102.091 105.128C102.57 94.992 100.441 85.8127 95.7042 77.5903Z" fill="#0D131A"/>
<path d="M81.8656 94.4427C77.591 98.04 72.4913 100.477 66.5664 101.753C61.0705 102.922 56.1606 102.86 51.8365 101.566C51.688 101.513 51.6632 101.239 51.7622 100.742C51.8448 100.264 51.9603 100.042 52.1088 100.078C56.3504 101.354 61.0953 101.434 66.3435 100.317C71.6744 99.183 76.51 97.0299 80.8506 93.8579C82.501 92.6529 83.417 92.1745 83.5985 92.4225C83.7636 92.6529 83.1859 93.3263 81.8656 94.4427Z" fill="#0D131A"/>
<path d="M70.3045 99.8121C70.387 99.6703 70.7666 99.5463 71.4433 99.4399L72.3345 99.5197C71.0472 101.788 69.4545 103.764 67.5566 105.447C65.378 107.379 63.2408 108.486 61.1447 108.77L53.7179 108.531C51.7705 108.017 50.6234 107.237 50.2768 106.192C50.2273 106.032 50.3511 105.766 50.6482 105.394C50.9288 105.004 51.0938 104.889 51.1433 105.049C51.4734 106.041 52.4884 106.785 54.1883 107.281C56.0368 107.831 58.3061 107.928 60.9962 107.574C62.5641 107.361 64.2228 106.519 65.9722 105.049C67.7051 103.595 69.1492 101.85 70.3045 99.8121Z" fill="#0D131A"/>
<path d="M12.6972 12.7589C12.8292 12.6526 13.151 12.6526 13.6627 12.7589C14.4549 12.9184 15.148 13.2994 15.7422 13.9019C15.8742 14.0083 15.8825 14.1766 15.7669 14.407C15.6679 14.6196 15.5524 14.6728 15.4203 14.5665C15.0738 14.2475 14.7354 14.0348 14.4053 13.9285L13.935 13.9019L14.034 14.7525L14.1825 16.3474C14.232 18.7574 13.4976 21.9117 11.9792 25.8103C10.791 28.9114 9.26433 32.1189 7.39938 35.4326C1.52394 45.9056 0.228377 54.9432 3.51268 62.5454C4.75048 65.4161 6.52467 67.7641 8.83523 69.5894C10.8817 71.1842 12.8457 72.0526 14.7272 72.1943C14.8757 72.212 14.8509 72.4158 14.6529 72.8057C14.4714 73.2133 14.2981 73.4082 14.133 73.3905C11.938 73.231 9.74295 72.3006 7.54791 70.5995C5.10532 68.6856 3.24861 66.2047 1.9778 63.1567C-1.323 55.2533 0.104597 45.8347 6.2606 34.901C9.16531 29.7266 11.1375 25.4736 12.1773 22.1421C13.2831 18.6156 13.4646 15.7537 12.7219 13.5564C12.5734 13.1488 12.5651 12.883 12.6972 12.7589Z" fill="#0D131A"/>
<path d="M25.5208 11.8286C25.6364 11.9526 25.6364 12.1476 25.5208 12.4134C25.4053 12.6969 25.2898 12.7767 25.1742 12.6526C23.9364 11.2704 22.3273 10.1628 20.3468 9.32997C18.4819 8.56798 16.8067 8.23128 15.3213 8.31989C14.6282 8.37305 14.2568 8.47051 14.2073 8.61228C14.1578 8.73633 14.3228 9.11732 14.7024 9.75527C16.5014 12.8032 16.5509 17.3043 14.851 23.2585C13.9268 26.4482 12.4826 30.4177 10.5187 35.1668C7.61396 43.3715 7.3829 50.6902 9.8255 57.1228C10.8322 59.7809 12.2268 62.0315 14.0093 63.8744C15.6597 65.5933 17.4421 66.754 19.3566 67.3566C19.4886 67.392 19.3896 67.5692 19.0595 67.8882C18.7294 68.1894 18.4901 68.3223 18.3416 68.2869C13.2748 66.692 9.80074 62.634 7.91928 56.1127C5.9553 49.3611 6.43392 42.1665 9.35513 34.5289L11.5337 29.2392C12.5734 26.652 13.3574 24.3926 13.8855 22.461C15.5029 16.6486 15.3131 12.3691 13.3161 9.62236C12.6394 8.68316 12.3259 8.08066 12.3754 7.81485C12.4249 7.51359 12.92 7.30095 13.8607 7.1769C15.6267 6.92881 17.6072 7.2212 19.8022 8.05408C22.1293 8.94011 24.0355 10.1983 25.5208 11.8286Z" fill="#0D131A"/>
<path d="M23.7879 6.69843L24.7038 7.49586C24.8029 7.61991 24.7781 7.87686 24.6296 8.26672C24.481 8.63885 24.3572 8.7629 24.2582 8.63885L23.7383 7.97432C23.4413 7.65535 23.2185 7.5313 23.0699 7.60219C22.9379 7.67307 22.8884 7.90344 22.9214 8.2933L23.1442 9.80842C23.1772 9.95019 23.0452 10.0211 22.7481 10.0211C22.451 10.0033 22.2942 9.91475 22.2777 9.75526L22.0302 8.10723C21.9642 7.20347 22.0962 6.60983 22.4263 6.32629C22.7068 6.09592 23.1607 6.21997 23.7879 6.69843Z" fill="#0D131A"/>
<path d="M61.7637 14.1943C65.3121 17.26 67.177 20.9636 67.3586 25.3052C67.3751 25.4824 67.1605 25.6153 66.7149 25.7039C66.2693 25.8103 66.0465 25.7748 66.0465 25.5976C65.8814 21.6282 64.2145 18.1992 61.0458 15.3107C57.2333 11.8375 51.9025 9.96792 45.0534 9.70211C39.1944 9.47174 35.0024 8.77177 32.4773 7.6022C30.4308 6.663 28.9537 5.07699 28.046 2.84418C27.8479 2.36572 27.6829 2.10877 27.5508 2.07333C27.4023 2.02016 27.163 2.19737 26.8329 2.60495C25.7271 3.91628 25.0752 5.52001 24.8772 7.41613C24.6791 9.36541 25.0587 10.8805 26.016 11.9615C27.9469 14.088 29.4735 16.5955 30.5958 19.484C31.289 21.2738 32.1307 24.2597 33.1209 28.4418C34.3257 33.5276 35.6543 37.311 37.1067 39.7919C38.2785 41.7944 39.9949 43.6019 42.2559 45.2145C42.3549 45.2676 42.2889 45.5246 42.0579 45.9853C41.8433 46.4284 41.67 46.6056 41.538 46.517C38.6333 44.4613 36.5455 42.2817 35.2747 39.978C34.1029 37.8515 32.9724 34.396 31.8831 29.6114C30.7114 24.4192 29.8366 21.0434 29.259 19.484C28.3678 17.0208 27.0227 14.788 25.2238 12.7855C23.9364 11.3501 23.5238 9.23251 23.986 6.43263C24.4316 3.79224 25.331 1.90498 26.6844 0.770851C27.295 0.256949 27.7241 0.0265793 27.9717 0.0797416C28.2192 0.132904 28.4586 0.505039 28.6896 1.19615C29.6798 3.96058 31.0992 5.78582 32.9476 6.67186C35.0272 7.6465 39.0706 8.25786 45.0781 8.50596C52.1418 8.77177 57.7037 10.6679 61.7637 14.1943Z" fill="#0D131A"/>
<path d="M68.9924 15.5234C72.1447 18.4296 73.5063 21.575 73.0772 24.9597C73.0607 25.1192 72.8131 25.19 72.3345 25.1723C71.8559 25.1546 71.6248 25.066 71.6413 24.9065C72.0044 22.0003 70.9317 19.2713 68.423 16.7195C65.5348 13.7956 61.5161 12.1299 56.3669 11.7223C56.2018 11.7046 55.7232 11.4919 54.931 11.0843C54.1223 10.659 53.7922 10.4464 53.9408 10.4464C60.3113 10.4464 65.3285 12.1387 68.9924 15.5234Z" fill="#0D131A"/>
<path d="M29.9026 84.0229C30.7938 80.2838 32.0399 77.484 33.6408 75.6233L51.985 81.3648C53.5859 87.9215 53.7427 94.1681 52.4554 100.105C51.6797 103.631 50.4666 106.776 48.8162 109.541C47.925 111.047 46.1096 112.039 43.3699 112.518C40.4817 113.032 37.7008 112.722 35.0271 111.588C33.0796 110.772 31.553 108.779 30.4473 105.607C29.424 102.718 28.8711 99.2539 28.7886 95.2136C28.7061 91.2619 29.0774 87.5316 29.9026 84.0229Z" fill="#7CBEB3"/>
<path d="M33.8388 91.3327C33.9379 90.2517 35.1509 88.7898 37.478 86.9468C39.805 85.1039 41.2822 84.4393 41.9093 84.9532C42.553 85.4671 42.6767 88.267 42.2807 93.3529C41.8846 98.4387 41.2822 101.017 40.4735 101.088C39.9948 101.123 38.757 99.7058 36.7601 96.835C34.7466 93.9288 33.7728 92.0947 33.8388 91.3327Z" fill="#006359"/>
<path d="M29.4323 85.1393C29.5148 92.7415 31.1074 99.0767 34.2102 104.145C37.1809 109.053 40.8943 111.756 45.3504 112.252C43.535 112.748 41.571 112.908 39.4585 112.731C35.2335 112.376 32.3865 110.498 30.9176 107.095C29.4488 103.711 28.7639 99.0324 28.8629 93.0605L29.4323 85.1393Z" fill="#68A198"/>
<path d="M32.5763 78.5472C30.4307 82.4989 29.457 88.1607 29.655 95.5325C29.8696 103.206 31.3715 108.141 34.1606 110.338C36.0586 111.827 38.6002 112.42 41.7855 112.119C44.8553 111.818 46.8853 110.914 47.8755 109.408C50.12 105.988 51.5889 101.859 52.2821 97.0211C52.9092 92.6618 52.8267 88.5151 52.0345 84.5811C51.6384 82.6141 51.5889 81.5597 51.886 81.418C52.183 81.2762 52.5791 82.1622 53.0743 84.0761C54.0975 88.0632 54.3038 92.3782 53.6932 97.0211C53.033 102.071 51.5229 106.404 49.1628 110.019C47.9415 111.88 45.4164 112.97 41.5875 113.289C37.841 113.59 35.0189 112.996 33.1209 111.508C31.7511 110.427 30.6205 108.513 29.7293 105.766C28.8711 103.144 28.3512 100.131 28.1697 96.7287C27.7241 89.0024 28.8628 82.7559 31.586 77.989C32.5432 76.3055 33.2034 75.4992 33.5665 75.5701C33.9461 75.6233 33.616 76.6156 32.5763 78.5472Z" fill="#0D131A"/>
<path d="M34.433 91.0669C34.4 91.6872 35.2499 93.4238 36.9828 96.2768C38.7488 99.183 39.8793 100.601 40.3744 100.53C40.919 100.441 41.3647 98.04 41.7112 93.3263C42.0578 88.5949 41.9753 86.0342 41.4637 85.6444C40.9851 85.29 39.6977 85.9545 37.6017 87.638C35.5222 89.3214 34.466 90.4644 34.433 91.0669ZM33.2942 90.8011C33.3437 89.5075 34.7218 87.8772 37.4284 85.9102C40.0856 83.9964 41.6782 83.3052 42.2064 83.8369C43.0811 84.7406 43.3286 87.8152 42.949 93.0605C42.5529 98.3059 41.8515 101.239 40.8448 101.859C40.1516 102.302 38.7075 100.902 36.5125 97.659C34.3174 94.4339 33.2447 92.1479 33.2942 90.8011Z" fill="#0D131A"/>
<path d="M14.6281 109.594C14.5456 109.328 14.8592 108.876 15.5689 108.238C16.295 107.6 16.8397 107.308 17.2028 107.361C17.8629 107.45 18.3168 108.221 18.5643 109.674C18.7954 111.02 18.8119 111.791 18.6139 111.986C18.3828 112.217 17.7391 112.075 16.6829 111.561C15.5441 111.012 14.8592 110.356 14.6281 109.594Z" fill="white"/>
<path d="M22.0054 111.588C20.8502 111.02 20.2725 110.453 20.2725 109.886C20.2725 109.39 20.6109 108.788 21.2875 108.079C21.9477 107.37 22.4511 107.104 22.7976 107.281C23.3423 107.565 23.7879 108.398 24.1345 109.78C24.4645 111.109 24.4811 111.88 24.184 112.093C23.8704 112.323 23.1442 112.155 22.0054 111.588Z" fill="white"/>
<path d="M25.8922 109.966C25.7766 109.045 26.0902 108.194 26.8329 107.414L27.9964 106.511C28.6071 106.794 29.0857 107.645 29.4323 109.062C29.7459 110.338 29.8201 111.083 29.6551 111.295L27.6994 111.242C26.5441 110.941 25.9417 110.515 25.8922 109.966Z" fill="white"/>
<path d="M35.6213 112.199C35.5883 111.738 35.7368 111.242 36.0669 110.71C36.463 110.072 36.9663 109.762 37.577 109.78C38.1876 109.798 38.658 110.046 38.9881 110.524C39.2521 110.967 39.3677 111.508 39.3347 112.146C39.3017 112.731 39.1119 113.386 38.7653 114.113C38.4352 114.839 38.1711 115.203 37.9731 115.203C37.7585 115.203 37.3294 114.822 36.6858 114.06C36.0091 113.262 35.6543 112.642 35.6213 112.199Z" fill="white"/>
<path d="M40.5477 112.784C40.4982 111.915 40.721 111.198 41.2161 110.631C41.6122 110.152 42.0083 109.913 42.4044 109.913C42.7015 109.913 43.0481 110.152 43.4442 110.631C43.8403 111.127 44.0878 111.623 44.1868 112.119C44.2529 112.438 44.1786 112.987 43.964 113.767C43.7495 114.6 43.4937 115.096 43.1966 115.256C42.8995 115.433 42.4044 115.238 41.7112 114.671C40.9686 114.086 40.5807 113.457 40.5477 112.784Z" fill="white"/>
<path d="M45.4247 112.624C44.9626 112.093 45.0038 111.286 45.5485 110.205C46.0931 109.124 46.6295 108.664 47.1576 108.823C47.6527 109 48.1313 109.745 48.5935 111.056C49.0226 112.314 49.1298 113.12 48.9153 113.475C48.7172 113.794 48.2056 113.865 47.3804 113.687C46.5387 113.493 45.8868 113.138 45.4247 112.624Z" fill="white"/>
<path d="M53.8417 107.786C53.7757 107.414 54.0976 106.954 54.8072 106.404C55.5004 105.873 56.0038 105.678 56.3173 105.819C56.862 106.085 57.2168 106.83 57.3819 108.052C57.5469 109.24 57.4809 109.904 57.1838 110.046C56.8867 110.188 56.3008 110.019 55.4261 109.541C54.4854 109.009 53.9573 108.424 53.8417 107.786Z" fill="white"/>
<path d="M60.5506 109.594C59.5439 109.222 58.958 108.797 58.7929 108.318C58.6444 107.91 58.9002 107.326 59.5604 106.564C60.2205 105.819 60.6992 105.518 60.9962 105.66C61.5739 105.926 61.9782 106.608 62.2093 107.707C62.4073 108.664 62.4238 109.319 62.2588 109.674L60.5506 109.594Z" fill="white"/>
<path d="M63.249 107.388C63.051 106.962 63.3315 106.351 64.0907 105.554C64.8334 104.774 65.3698 104.455 65.6999 104.597C66.0795 104.774 66.4508 105.421 66.8139 106.537C67.1605 107.636 67.2513 108.309 67.0862 108.557L65.2048 108.504C64.1155 108.221 63.4636 107.848 63.249 107.388Z" fill="white"/>
<path d="M91.3224 111.481C91.0913 111.233 91.2729 110.595 91.867 109.567C92.4612 108.522 92.9645 108.008 93.3771 108.026C93.9218 108.061 94.5324 108.699 95.2091 109.939C95.8527 111.109 96.1003 111.8 95.9518 112.013C95.7702 112.261 95.0688 112.341 93.8475 112.252C92.5767 112.163 91.735 111.906 91.3224 111.481Z" fill="white"/>
<path d="M96.7192 110.019C96.4881 109.753 96.6367 109.089 97.1648 108.026C97.6764 106.962 98.122 106.449 98.5016 106.484C98.8647 106.519 99.3763 107.14 100.036 108.345C100.664 109.532 100.919 110.258 100.804 110.524C100.655 110.79 100.053 110.888 98.9967 110.817C97.8745 110.746 97.1153 110.48 96.7192 110.019Z" fill="white"/>
<path d="M100.853 107.574C100.589 107.219 100.672 106.546 101.101 105.554C101.514 104.597 101.844 104.136 102.091 104.171C102.52 104.225 103.049 104.809 103.676 105.926C104.286 107.024 104.517 107.716 104.369 107.999C104.253 108.3 103.733 108.416 102.809 108.345C101.835 108.274 101.184 108.017 100.853 107.574Z" fill="white"/>
<path d="M15.6926 108.079L16.7819 109.541C17.5081 110.622 17.9124 111.464 17.995 112.066L16.262 111.109C15.1233 110.418 14.5869 109.922 14.6529 109.621C14.7189 109.319 14.917 108.974 15.247 108.584L15.6926 108.079Z" fill="#DBDCDC"/>
<path d="M21.2628 108.185L22.2035 109.434C22.8637 110.427 23.301 111.322 23.5156 112.119C21.4856 111.357 20.4458 110.604 20.3963 109.86C20.3633 109.399 20.4953 108.983 20.7924 108.61L21.2628 108.185Z" fill="#DBDCDC"/>
<path d="M29.0362 111.481C27.9799 111.233 27.2207 110.985 26.7586 110.737C26.2305 110.471 25.9334 110.143 25.8674 109.753C25.8014 109.417 25.8674 109.027 26.0655 108.584L26.3873 108.026C26.8329 108.256 27.3775 108.823 28.0212 109.727C28.5658 110.507 28.9042 111.091 29.0362 111.481Z" fill="#DBDCDC"/>
<path d="M36.6115 110.338L36.8591 111.96C37.0736 113.182 37.3377 114.139 37.6513 114.83L36.7106 113.953C36.0999 113.227 35.8111 112.482 35.8441 111.72C35.8771 111.189 36.0009 110.799 36.2154 110.551C36.3805 110.356 36.5125 110.285 36.6115 110.338Z" fill="#DBDCDC"/>
<path d="M41.0676 111.189L42.0083 112.837L43.2461 115.282C42.784 115.123 42.3219 114.892 41.8598 114.591C40.9355 113.989 40.5064 113.342 40.5725 112.651C40.6385 111.977 40.7375 111.534 40.8695 111.322L41.0676 111.189Z" fill="#DBDCDC"/>
<path d="M45.5484 110.232L46.712 111.428C47.5372 112.332 48.0406 113.085 48.2221 113.687L46.6872 113.156C45.664 112.73 45.1689 112.314 45.2019 111.906L45.3999 110.71L45.5484 110.232Z" fill="#DBDCDC"/>
<path d="M54.6587 106.59C54.8072 106.697 55.1208 107.095 55.5994 107.786C56.1936 108.655 56.5237 109.355 56.5897 109.886L54.8072 108.983C54.3451 108.681 54.1058 108.3 54.0893 107.84C54.0728 107.503 54.1636 107.193 54.3616 106.909L54.6587 106.59Z" fill="#DBDCDC"/>
<path d="M59.288 106.75L60.105 107.361C60.7321 107.981 61.2768 108.797 61.7389 109.807L60.4021 109.408C59.4943 109.053 58.991 108.646 58.8919 108.185C58.7929 107.724 58.8259 107.352 58.991 107.069L59.288 106.75Z" fill="#DBDCDC"/>
<path d="M63.9422 105.687L64.9572 106.484C65.6834 107.175 66.1785 107.893 66.4426 108.637L65.0315 108.424C64.0412 108.159 63.4553 107.76 63.2738 107.228C63.1748 106.98 63.216 106.67 63.3976 106.298C63.5626 105.943 63.7442 105.74 63.9422 105.687Z" fill="#DBDCDC"/>
<path d="M91.966 109.434C93.3524 110.143 94.4664 111.029 95.3081 112.093L93.4514 112.119C92.2136 112.048 91.5699 111.782 91.5204 111.322C91.4709 110.861 91.5287 110.409 91.6937 109.966L91.966 109.434Z" fill="#DBDCDC"/>
<path d="M97.14 108.292C97.4206 108.38 97.891 108.646 98.5511 109.089C99.4423 109.674 99.9952 110.232 100.21 110.764L98.4768 110.684C97.3051 110.542 96.7109 110.267 96.6944 109.86C96.6614 109.47 96.7274 109.089 96.8925 108.717L97.14 108.292Z" fill="#DBDCDC"/>
<path d="M101.052 105.687L102.141 106.404C102.949 107.007 103.511 107.645 103.824 108.318L102.537 108.212C101.646 108.07 101.093 107.831 100.878 107.494C100.664 107.157 100.631 106.75 100.779 106.271L101.052 105.687Z" fill="#DBDCDC"/>
<path d="M90.852 111.641C90.72 111.127 90.9841 110.303 91.6442 109.169C92.3044 108.017 92.8738 107.432 93.3524 107.414C93.831 107.397 94.4994 108.07 95.3576 109.434C96.1993 110.764 96.5624 111.667 96.4469 112.146C96.3479 112.571 95.4237 112.704 93.6742 112.544C91.9248 112.385 90.9841 112.084 90.852 111.641ZM92.4612 109.567C92.0486 110.276 91.8835 110.79 91.9661 111.109C92.1311 111.357 92.717 111.561 93.7237 111.72C94.6975 111.88 95.2256 111.871 95.3081 111.694C95.3906 111.499 95.1678 110.932 94.6397 109.993C94.0786 109.036 93.6412 108.548 93.3276 108.531C93.1461 108.513 92.8573 108.859 92.4612 109.567Z" fill="#0D131A"/>
<path d="M100.284 110.312C100.383 110.152 100.169 109.585 99.6404 108.61C99.1288 107.636 98.7409 107.122 98.4768 107.069C98.2788 107.051 97.9982 107.423 97.6351 108.185C97.2555 108.947 97.0988 109.479 97.1648 109.78C97.2143 110.046 97.7342 110.241 98.7244 110.365L100.284 110.312ZM98.6006 105.873C99.1288 105.944 99.7559 106.732 100.482 108.238C101.175 109.674 101.448 110.56 101.299 110.896C101.15 111.251 100.367 111.357 98.9472 111.215C97.4949 111.056 96.6201 110.755 96.3231 110.312C96.059 109.922 96.2323 109.08 96.8429 107.786C97.4536 106.44 98.0395 105.802 98.6006 105.873Z" fill="#0D131A"/>
<path d="M101.423 105.846C101.175 106.449 101.126 106.945 101.274 107.335C101.34 107.547 101.778 107.716 102.586 107.84L103.898 107.76C103.997 107.583 103.824 107.069 103.379 106.218C102.933 105.314 102.545 104.871 102.215 104.889C101.934 104.925 101.67 105.244 101.423 105.846ZM100.878 105.182C101.39 104.171 101.827 103.666 102.19 103.666C102.801 103.666 103.445 104.402 104.121 105.873C104.781 107.29 105.012 108.176 104.814 108.531L102.611 108.61C101.258 108.433 100.523 108.185 100.408 107.866C100.16 107.175 100.317 106.28 100.878 105.182Z" fill="#0D131A"/>
<path d="M43.1966 111.003C42.9161 110.648 42.6437 110.489 42.3797 110.524C42.0001 110.542 41.6617 110.799 41.3647 111.295C41.0676 111.774 40.9438 112.234 40.9933 112.677C41.0428 113.085 41.3647 113.546 41.9588 114.06C42.5365 114.538 42.9243 114.733 43.1224 114.644C43.2544 114.591 43.3947 114.334 43.5432 113.874C43.7413 113.342 43.8073 112.846 43.7413 112.385C43.6917 111.836 43.5102 111.375 43.1966 111.003ZM40.622 110.657C41.1831 109.771 41.7938 109.355 42.4539 109.408C42.9326 109.443 43.3617 109.709 43.7413 110.205C44.1208 110.702 44.3602 111.313 44.4592 112.039C44.5747 112.748 44.5252 113.519 44.3106 114.352C44.0961 115.167 43.832 115.637 43.5184 115.761C43.1224 115.92 42.4869 115.69 41.6122 115.07C40.6715 114.379 40.1351 113.625 40.0031 112.81C39.9041 112.19 40.1104 111.472 40.622 110.657Z" fill="#0D131A"/>
<path d="M38.4682 110.95C38.2537 110.631 38.0144 110.453 37.7503 110.418C37.4367 110.383 37.1066 110.524 36.7601 110.843C36.397 111.162 36.2154 111.508 36.2154 111.88C36.2319 112.341 36.4712 112.89 36.9333 113.528C37.3459 114.13 37.6513 114.432 37.8493 114.432C38.0309 114.414 38.2289 114.157 38.4435 113.661C38.6745 113.165 38.7983 112.669 38.8148 112.172C38.8313 111.712 38.7158 111.304 38.4682 110.95ZM35.9184 110.072C36.529 109.488 37.1644 109.24 37.8246 109.328C38.3692 109.399 38.8396 109.718 39.2357 110.285C39.6153 110.852 39.7885 111.481 39.7555 112.172C39.739 112.739 39.5327 113.466 39.1366 114.352C38.7075 115.273 38.3362 115.752 38.0226 115.787C37.6595 115.841 37.0901 115.389 36.3144 114.432C35.4892 113.439 35.0601 112.598 35.0271 111.907C34.9941 111.251 35.2912 110.639 35.9184 110.072Z" fill="#0D131A"/>
<path d="M47.9993 110.418C47.6197 109.851 47.2731 109.567 46.9596 109.567C46.646 109.532 46.3324 109.78 46.0188 110.312C45.6888 110.861 45.565 111.375 45.6475 111.853C45.73 112.279 46.1921 112.651 47.0338 112.97C47.8425 113.253 48.3129 113.333 48.4449 113.209C48.5605 113.103 48.5852 112.731 48.5192 112.093C48.4532 111.401 48.2799 110.843 47.9993 110.418ZM47.1329 108.398C47.9416 108.522 48.577 109.434 49.0391 111.136C49.4682 112.731 49.5507 113.687 49.2866 114.006L46.9596 113.847C45.5732 113.439 44.8223 112.908 44.7068 112.252C44.5747 111.526 44.7645 110.693 45.2762 109.753C45.8373 108.743 46.4562 108.291 47.1329 108.398Z" fill="#0D131A"/>
<path d="M29.8779 108.85C30.2905 110.551 30.3317 111.508 30.0016 111.72C29.5725 111.986 28.7308 111.933 27.4765 111.561C26.1727 111.171 25.4465 110.702 25.298 110.152C25.0999 109.496 25.331 108.655 25.9912 107.627C26.6678 106.564 27.3445 106.059 28.0212 106.112C28.8133 106.165 29.4322 107.078 29.8779 108.85ZM26.3377 109.727C26.3873 110.099 26.8411 110.436 27.6993 110.737C28.5245 111.02 29.0279 111.074 29.2094 110.896C29.3415 110.772 29.2672 110.179 28.9866 109.115C28.6896 107.981 28.343 107.379 27.9469 107.308C27.6168 107.255 27.2537 107.494 26.8576 108.026C26.412 108.593 26.2387 109.16 26.3377 109.727Z" fill="#0D131A"/>
<path d="M20.8667 109.886C20.8667 110.294 21.3205 110.719 22.2282 111.162C23.1195 111.588 23.6311 111.703 23.7631 111.508C23.9117 111.313 23.8704 110.737 23.6393 109.78C23.3918 108.752 23.07 108.194 22.6739 108.105C22.2943 108.017 21.8982 108.203 21.4856 108.664C21.106 109.089 20.8997 109.479 20.8667 109.833V109.886ZM20.8419 107.786C21.5516 107.078 22.1787 106.776 22.7234 106.883C23.5486 107.042 24.1427 107.973 24.5058 109.674C24.8524 111.286 24.8606 112.243 24.5306 112.544C24.217 112.863 23.3423 112.686 21.9064 112.013C20.4046 111.339 19.6866 110.577 19.7526 109.727C19.8022 109.124 20.1652 108.478 20.8419 107.786Z" fill="#0D131A"/>
<path d="M63.7441 107.016C63.7936 107.37 64.2723 107.707 65.18 108.026C66.0547 108.327 66.5498 108.398 66.6653 108.238C66.7809 108.079 66.7066 107.529 66.4425 106.59C66.162 105.598 65.8566 105.084 65.5266 105.049C65.246 105.013 64.8664 105.243 64.3878 105.74C63.9092 106.254 63.6946 106.679 63.7441 107.016ZM63.7689 105.235C64.6271 104.349 65.3038 103.994 65.7989 104.171C66.426 104.419 66.9377 105.261 67.3338 106.697C67.7133 108.061 67.7794 108.867 67.5318 109.115C67.2842 109.346 66.4755 109.266 65.1057 108.876C63.7029 108.469 62.9189 108.017 62.7539 107.521C62.5558 106.9 62.8942 106.138 63.7689 105.235Z" fill="#0D131A"/>
<path d="M60.6001 109.142C61.3263 109.408 61.7471 109.479 61.8627 109.355C61.9782 109.231 61.9534 108.726 61.7884 107.84C61.6069 106.9 61.351 106.387 61.021 106.298C60.6909 106.209 60.303 106.404 59.8574 106.883C59.4118 107.379 59.2303 107.813 59.3128 108.185C59.4118 108.557 59.8409 108.876 60.6001 109.142ZM61.219 105.314C61.7637 105.456 62.2175 106.227 62.5806 107.627C62.9107 108.991 62.9437 109.886 62.6796 110.312C62.5146 110.577 61.7802 110.462 60.4763 109.966C59.123 109.452 58.3968 108.912 58.2978 108.345C58.1823 107.778 58.4959 107.095 59.2385 106.298C59.9977 105.483 60.6579 105.155 61.219 105.314Z" fill="#0D131A"/>
<path d="M55.5994 109.089C56.3256 109.514 56.7629 109.674 56.9115 109.567C57.0435 109.479 57.06 108.965 56.961 108.026C56.8455 107.033 56.6144 106.475 56.2678 106.351C55.9377 106.227 55.5416 106.351 55.0795 106.723C54.6339 107.078 54.4194 107.432 54.4359 107.786C54.4524 108.212 54.8402 108.646 55.5994 109.089ZM56.5401 105.368C57.2333 105.527 57.6459 106.404 57.7779 107.999C57.8935 109.505 57.811 110.365 57.5304 110.577C57.2168 110.79 56.4411 110.542 55.2033 109.833C53.949 109.089 53.2971 108.442 53.2476 107.893C53.1981 107.379 53.5529 106.794 54.3121 106.138C55.1208 105.465 55.8635 105.208 56.5401 105.368Z" fill="#0D131A"/>
<path d="M16.5838 110.764C17.4586 111.242 17.9619 111.393 18.094 111.215C18.2425 111.038 18.2177 110.48 18.0197 109.541C17.8051 108.566 17.5493 108.035 17.2523 107.946C16.9057 107.822 16.4848 107.964 15.9897 108.371C15.4946 108.779 15.247 109.178 15.247 109.567C15.2635 109.869 15.7091 110.267 16.5838 110.764ZM17.4751 106.75C18.1847 106.909 18.6881 107.84 18.9852 109.541C19.2657 111.171 19.2575 112.084 18.9604 112.279C18.4488 112.651 17.5246 112.456 16.1877 111.694C14.8674 110.95 14.1825 110.285 14.133 109.7C14.067 109.027 14.4548 108.327 15.2965 107.6C16.1217 106.892 16.8479 106.608 17.4751 106.75Z" fill="#0D131A"/>
</svg>
